<svg xmlns="http://www.w3.org/2000/svg" viewBox="0 -0.5 73 92" shape-rendering="crispEdges">
<metadata>Made with Pixels to Svg https://codepen.io/shshaw/pen/XbxvNj</metadata>
<path stroke="#000000" d="M39 7h7M36 8h11M34 9h7M44 9h4M31 10h6M45 10h3M30 11h5M46 11h3M28 12h5M46 12h3M28 13h3M47 13h3M26 14h4M47 14h4M26 15h3M48 15h3M25 16h3M49 16h2M25 17h2M49 17h2M24 18h3M49 18h2M23 19h3M49 19h2M23 20h3M49 20h2M22 21h3M49 21h3M22 22h3M50 22h2M22 23h2M50 23h2M22 24h2M50 24h2M22 25h2M50 25h3M22 26h2M50 26h3M21 27h3M51 27h2M21 28h2M51 28h2M21 29h2M51 29h2M21 30h2M51 30h3M21 31h2M51 31h3M20 32h3M52 32h2M20 33h2M52 33h2M19 34h3M52 34h2M19 35h3M52 35h2M19 36h2M52 36h2M19 37h2M52 37h2M19 38h2M52 38h2M19 39h2M52 39h2M19 40h2M52 40h2M18 41h3M52 41h2M18 42h2M52 42h3M18 43h2M53 43h2M17 44h3M53 44h2M17 45h3M53 45h2M17 46h2M53 46h2M17 47h2M53 47h2M17 48h2M53 48h2M16 49h3M53 49h2M16 50h3M53 50h2M16 51h2M53 51h2M16 52h2M53 52h2M16 53h2M53 53h2M16 54h2M53 54h2M16 55h2M53 55h2M16 56h2M53 56h2M16 57h2M53 57h2M16 58h2M53 58h2M16 59h2M53 59h2M16 60h2M53 60h2M16 61h2M53 61h2M16 62h2M53 62h2M16 63h2M53 63h2M16 64h2M53 64h2M16 65h2M53 65h2M16 66h2M52 66h3M16 67h2M52 67h3M16 68h2M52 68h2M16 69h2M52 69h2M16 70h2M52 70h2M16 71h3M52 71h2M16 72h3M52 72h2M17 73h2M52 73h2M17 74h2M52 74h2M17 75h2M52 75h2M17 76h2M52 76h1M18 77h1M52 77h1" />
<path stroke="#8c7c79" d="M41 9h3M37 10h8M35 11h11M33 12h13M31 13h16M30 14h17M29 15h19M28 16h21M27 17h22M27 18h22M26 19h23M26 20h23M25 21h24M25 22h10M39 22h11M24 23h8M36 23h2M40 23h10M24 24h8M33 24h6M40 24h10M24 25h7M33 25h6M40 25h10M24 26h7M32 26h3M37 26h2M40 26h10M24 27h7M32 27h4M40 27h11M23 28h8M32 28h8M45 28h6M23 29h9M33 29h5M41 29h3M46 29h5M23 30h9M35 30h2M39 30h6M46 30h5M23 31h11M37 31h8M46 31h5M23 32h22M46 32h6M22 33h5M34 33h10M46 33h6M22 34h5M28 34h5M36 34h8M45 34h7M22 35h5M28 35h8M38 35h5M45 35h7M21 36h6M28 36h9M38 36h3M44 36h8M21 37h6M28 37h9M42 37h10M21 38h6M28 38h9M42 38h10M21 39h6M28 39h5M41 39h11M21 40h6M29 40h3M34 40h6M42 40h10M21 41h7M33 41h8M42 41h10M20 42h21M42 42h10M20 43h21M42 43h11M20 44h21M42 44h11M20 45h7M33 45h7M41 45h12M19 46h8M28 46h4M35 46h4M41 46h12M19 47h8M28 47h6M40 47h13M19 48h8M28 48h25M19 49h8M28 49h25M19 50h8M28 50h8M41 50h12M18 51h9M29 51h6M37 51h3M42 51h11M18 52h10M36 52h5M42 52h11M18 53h23M42 53h11M18 54h23M42 54h11M18 55h23M42 55h11M18 56h13M36 56h5M42 56h11M18 57h12M32 57h3M37 57h4M42 57h11M18 58h11M30 58h6M37 58h3M42 58h11M18 59h11M30 59h6M38 59h1M41 59h12M18 60h11M30 60h7M40 60h13M18 61h11M30 61h23M18 62h11M32 62h3M42 62h11M18 63h13M36 63h5M43 63h10M18 64h24M43 64h10M18 65h24M43 65h10M18 66h24M43 66h9M18 67h24M43 67h9M18 68h24M43 68h9M18 69h11M37 69h4M43 69h9M18 70h11M30 70h6M42 70h10M19 71h10M30 71h22M19 72h10M30 72h22M19 73h11M41 73h11M19 74h3M25 74h15M42 74h10M19 75h2M25 75h15M42 75h10M19 76h2M28 76h7M42 76h10M19 77h2M24 77h2M29 77h4M42 77h10M20 78h1M24 78h3M30 78h3M40 78h4M27 79h1M32 79h2M40 79h2M32 80h2M39 80h2M39 81h1" />
<path stroke="#03a9f4" d="M35 22h4M32 23h4M38 23h2M32 24h1M39 24h1M31 25h2M39 25h1M31 26h1M35 26h2M39 26h1M31 27h1M36 27h4M31 28h1M32 29h1M32 30h3M34 31h3" />
<path stroke="#2e7d32" d="M40 28h5M38 29h3M44 29h2M37 30h2M45 30h1M45 31h1M45 32h1M27 33h7M44 33h2M27 34h1M33 34h3M44 34h1M27 35h1M36 35h2M43 35h2M27 36h1M37 36h1M41 36h3M27 37h1M37 37h5M27 38h1M37 38h5M27 39h1M33 39h8M27 40h2M32 40h2M40 40h2M28 41h5M41 41h1M41 42h1M41 43h1M41 44h1" />
<path stroke="#bbdefb" d="M27 45h6M40 45h1M27 46h1M32 46h3M39 46h2M27 47h1M34 47h6M27 48h1M27 49h1M27 50h1M36 50h5M27 51h2M35 51h2M40 51h2M28 52h8M41 52h1M41 53h1M41 54h1M41 55h1M31 56h5M41 56h1M30 57h2M35 57h2M41 57h1M36 58h1M40 58h2M36 59h2M39 59h2M37 60h3" />
<path stroke="#ed1d0e" d="M29 58h1M29 59h1M29 60h1M29 61h1M29 62h3M35 62h7M31 63h5M41 63h2M42 64h1M42 65h1M42 66h1M42 67h1M42 68h1M29 69h8M41 69h2M29 70h1M36 70h6M29 71h1M29 72h1M30 73h11M40 74h2M40 75h2M35 76h6M33 77h3M33 78h2M34 79h2" />
<path stroke="#005d30" d="M10 73h3M12 74h2M22 74h3M55 74h2M13 75h2M21 75h4M54 75h2M60 75h2M14 76h2M21 76h7M41 76h1M53 76h2M58 76h4M10 77h4M15 77h1M21 77h1M26 77h3M39 77h3M53 77h1M56 77h5M13 78h5M21 78h1M27 78h3M39 78h1M44 78h4M52 78h2M55 78h5M15 79h4M21 79h1M28 79h4M37 79h3M46 79h3M52 79h1M54 79h5M16 80h3M21 80h1M29 80h3M35 80h4M48 80h3M52 80h6M17 81h3M21 81h1M29 81h6M36 81h2M50 81h7M18 82h4M30 82h1M32 82h5M50 82h6M19 83h3M30 83h1M32 83h3M51 83h5M59 83h5M20 84h2M30 84h1M32 84h1M52 84h3M57 84h4M21 85h1M53 85h1M57 85h2M56 86h2" />
<path stroke="#008131" d="M14 77h1M16 77h2M22 77h2M11 78h2M18 78h2M22 78h2M36 78h3M48 78h4M54 78h1M14 79h1M19 79h2M22 79h5M36 79h1M42 79h4M49 79h3M53 79h1M59 79h3M10 80h6M19 80h2M22 80h7M34 80h1M41 80h7M51 80h1M58 80h5M10 81h7M20 81h1M22 81h7M35 81h1M38 81h1M40 81h10M57 81h6M10 82h8M22 82h8M31 82h1M37 82h13M56 82h7M12 83h7M22 83h8M31 83h1M35 83h16M56 83h3M12 84h8M22 84h8M31 84h1M33 84h19M55 84h2M13 85h8M22 85h31M54 85h3M59 85h2M14 86h42M58 86h3M15 87h4M21 87h4M38 87h7M46 87h15M39 88h10M50 88h9M43 89h5M50 89h2M53 89h4" />
<path stroke="#a1887f" d="M36 77h3" />
<path stroke="#ad6d56" d="M35 78h1" />
</svg>