<svg xmlns="http://www.w3.org/2000/svg" viewBox="0 -0.5 300 300" shape-rendering="crispEdges">
<metadata>Made with Pixels to Svg https://codepen.io/shshaw/pen/XbxvNj</metadata>
<path stroke="#000000" d="M156 15h24M156 16h24M156 17h24M156 18h24M147 19h37M147 20h37M147 21h12M176 21h8M140 22h18M176 22h11M140 23h12M176 23h11M140 24h12M176 24h11M140 25h12M182 25h5M130 26h21M182 26h5M130 27h14M182 27h5M130 28h14M182 28h5M126 29h18M182 29h9M126 30h18M182 30h9M126 31h18M182 31h9M126 32h6M182 32h9M119 33h13M182 33h9M119 34h13M187 34h4M119 35h10M187 35h4M119 36h10M187 36h7M119 37h10M187 37h7M119 38h6M187 38h7M119 39h4M189 39h5M112 40h11M189 40h9M112 41h11M189 41h9M112 42h11M189 42h9M112 43h8M189 43h9M112 44h7M192 44h6M112 45h3M192 45h6M112 46h3M192 46h6M109 47h6M192 47h6M109 48h5M192 48h6M109 49h5M192 49h6M109 50h4M192 50h6M109 51h4M192 51h6M108 52h5M192 52h6M105 53h7M194 53h4M105 54h7M194 54h4M105 55h7M194 55h4M105 56h4M194 56h4M102 57h7M194 57h4M102 58h7M194 58h4M102 59h7M193 59h5M102 60h7M193 60h5M102 61h7M193 61h5M102 62h7M193 62h5M98 63h8M195 63h3M98 64h8M195 64h6M98 65h8M195 65h6M98 66h8M195 66h6M98 67h8M195 67h6M98 68h5M197 68h4M98 69h5M197 69h4M98 70h3M197 70h4M98 71h3M197 71h4M98 72h3M197 72h4M98 73h3M197 73h4M98 74h3M197 74h4M98 75h3M197 75h4M98 76h3M197 76h4M98 77h3M197 77h4M98 78h3M197 78h8M98 79h3M197 79h8M98 80h3M197 80h8M98 81h3M197 81h8M98 82h3M197 82h8M95 83h7M201 83h4M95 84h6M201 84h4M95 85h6M201 85h4M95 86h6M201 86h4M95 87h6M201 87h4M95 88h6M201 88h4M95 89h6M200 89h5M95 90h6M200 90h5M95 91h6M200 91h5M95 92h6M200 92h5M95 93h6M200 93h8M95 94h6M200 94h8M95 95h6M202 95h6M95 96h6M202 96h6M95 97h6M202 97h6M95 98h6M202 98h6M95 99h6M202 99h6M95 100h6M202 100h6M91 101h9M202 101h6M91 102h9M202 102h6M91 103h5M202 103h6M91 104h5M203 104h5M91 105h5M203 105h5M91 106h5M203 106h5M91 107h5M203 107h5M88 108h8M203 108h5M88 109h8M203 109h5M88 110h8M203 110h5M88 111h6M203 111h5M88 112h4M203 112h5M88 113h4M203 113h5M88 114h4M203 114h5M88 115h4M203 115h5M88 116h4M203 116h5M88 117h4M203 117h5M88 118h4M203 118h5M88 119h4M203 119h5M88 120h4M203 120h5M88 121h4M203 121h5M88 122h4M203 122h5M88 123h3M203 123h5M88 124h3M203 124h5M88 125h3M203 125h5M88 126h3M203 126h5M88 127h3M203 127h5M84 128h7M203 128h5M84 129h7M203 129h5M84 130h7M203 130h5M84 131h7M203 131h5M84 132h6M203 132h9M84 133h4M203 133h9M84 134h4M203 134h9M84 135h4M203 135h9M84 136h4M203 136h9M84 137h3M204 137h8M81 138h6M206 138h6M81 139h6M206 139h6M81 140h6M206 140h6M81 141h6M206 141h6M81 142h6M206 142h6M81 143h6M206 143h6M81 144h6M206 144h6M81 145h5M206 145h6M81 146h5M206 146h6M81 147h5M206 147h6M81 148h4M206 148h6M81 149h4M206 149h6M81 150h4M206 150h6M81 151h5M206 151h6M81 152h5M206 152h6M81 153h5M206 153h6M81 154h5M207 154h5M81 155h5M207 155h5M81 156h5M207 156h5M77 157h9M207 157h5M77 158h9M206 158h6M77 159h9M206 159h6M77 160h8M206 160h6M77 161h8M206 161h6M77 162h5M206 162h6M77 163h5M206 163h6M77 164h5M206 164h6M77 165h5M206 165h6M77 166h5M206 166h6M77 167h5M206 167h6M77 168h5M205 168h7M77 169h5M205 169h7M77 170h5M205 170h7M77 171h5M205 171h7M77 172h5M205 172h7M77 173h5M205 173h7M77 174h5M205 174h7M77 175h5M205 175h7M77 176h5M205 176h7M77 177h5M205 177h7M77 178h5M205 178h7M77 179h5M205 179h7M77 180h5M205 180h7M77 181h5M205 181h7M77 182h5M205 182h7M77 183h5M205 183h7M77 184h5M205 184h7M77 185h5M205 185h7M77 186h5M205 186h7M77 187h5M205 187h7M77 188h5M205 188h7M77 189h5M205 189h7M77 190h5M205 190h7M77 191h5M205 191h7M77 192h5M205 192h7M77 193h5M205 193h7M77 194h5M205 194h7M77 195h5M205 195h7M77 196h5M205 196h7M77 197h5M205 197h7M77 198h5M205 198h7M77 199h5M205 199h7M77 200h5M205 200h7M77 201h5M205 201h7M77 202h5M205 202h7M77 203h5M205 203h7M77 204h5M205 204h7M77 205h5M205 205h7M77 206h5M205 206h7M77 207h5M205 207h7M77 208h5M205 208h7M77 209h5M205 209h7M77 210h6M205 210h7M77 211h6M205 211h7M77 212h6M205 212h7M77 213h6M205 213h7M77 214h6M205 214h7M77 215h6M205 215h7M77 216h6M205 216h7M77 217h6M204 217h8M77 218h6M204 218h8M77 219h6M204 219h8M77 220h6M204 220h8M77 221h6M204 221h8M77 222h6M204 222h8M77 223h6M204 223h4M77 224h6M203 224h5M77 225h6M203 225h5M77 226h6M203 226h5M77 227h6M203 227h5M77 228h6M203 228h5M77 229h6M203 229h5M77 230h6M203 230h5M77 231h6M203 231h5M77 232h6M203 232h5M77 233h6M204 233h4M77 234h6M204 234h4M77 235h6M204 235h4M77 236h6M204 236h4M77 237h7M204 237h5M77 238h7M204 238h5M77 239h7M204 239h5M77 240h7M204 240h5M77 241h7M204 241h5M81 242h3M204 242h5M81 243h3M204 243h5M81 244h3M204 244h5M81 245h3M204 245h5M81 246h3M204 246h5M81 247h3M204 247h4M81 248h3M204 248h4M81 249h3M201 249h7M81 250h6M201 250h7M81 251h6M201 251h4M81 252h6M201 252h4M83 253h5M201 253h4M84 254h4M201 254h4M84 255h4M201 255h4M201 256h4M201 257h3" />
<path stroke="#8c7c79" d="M159 21h17M158 22h18M152 23h24M152 24h24M152 25h30M152 26h30M144 27h38M144 28h38M144 29h38M144 30h38M144 31h38M132 32h50M132 33h50M132 34h55M129 35h58M129 36h58M129 37h58M125 38h62M123 39h66M123 40h66M123 41h66M123 42h66M120 43h69M119 44h73M115 45h77M115 46h77M115 47h77M114 48h78M114 49h78M113 50h79M113 51h79M113 52h79M112 53h82M112 54h82M112 55h82M109 56h85M109 57h85M109 58h85M109 59h84M109 60h84M109 61h84M109 62h84M106 63h89M106 64h89M106 65h89M106 66h89M106 67h89M103 68h94M103 69h43M149 69h48M101 70h43M155 70h42M101 71h42M155 71h42M101 72h40M156 72h41M101 73h32M147 73h6M159 73h38M101 74h32M147 74h6M159 74h38M101 75h32M137 75h16M159 75h38M101 76h32M137 76h18M159 76h38M101 77h32M137 77h18M159 77h38M101 78h32M137 78h18M159 78h38M101 79h29M137 79h18M159 79h38M101 80h29M137 80h18M159 80h38M101 81h29M133 81h22M159 81h38M101 82h29M133 82h21M159 82h38M102 83h28M133 83h11M159 83h42M101 84h29M133 84h11M159 84h42M101 85h29M133 85h14M159 85h42M101 86h29M133 86h14M159 86h42M101 87h29M133 87h14M151 87h50M101 88h29M133 88h68M101 89h29M133 89h26M176 89h24M101 90h29M133 90h26M176 90h24M101 91h29M137 91h15M176 91h24M101 92h32M137 92h15M162 92h11M180 92h20M101 93h32M137 93h15M162 93h11M180 93h20M101 94h32M137 94h15M162 94h11M180 94h20M101 95h32M137 95h15M155 95h18M180 95h22M101 96h32M144 96h8M155 96h18M180 96h22M101 97h32M144 97h8M155 97h22M180 97h22M101 98h36M155 98h22M180 98h22M101 99h39M151 99h26M180 99h22M101 100h39M151 100h26M180 100h22M100 101h46M151 101h26M180 101h22M100 102h77M180 102h22M96 103h81M180 103h22M96 104h81M180 104h23M96 105h20M140 105h37M180 105h23M96 106h20M140 106h33M180 106h23M96 107h20M140 107h33M180 107h23M96 108h20M140 108h33M180 108h23M96 109h20M146 109h27M176 109h27M96 110h20M118 110h19M146 110h27M176 110h27M94 111h22M118 111h19M148 111h25M176 111h27M92 112h24M118 112h19M152 112h21M177 112h26M92 113h24M118 113h28M152 113h20M177 113h26M92 114h24M118 114h29M152 114h20M177 114h26M92 115h24M118 115h30M152 115h18M177 115h26M92 116h24M119 116h29M152 116h16M176 116h27M92 117h24M119 117h30M153 117h8M176 117h27M92 118h24M119 118h31M154 118h6M176 118h27M92 119h24M119 119h32M157 119h3M176 119h27M92 120h24M119 120h33M165 120h38M92 121h24M119 121h34M165 121h38M92 122h24M119 122h35M165 122h38M91 123h25M119 123h35M163 123h40M91 124h25M119 124h19M163 124h40M91 125h25M119 125h19M163 125h40M91 126h25M119 126h19M163 126h40M91 127h25M123 127h10M140 127h18M163 127h40M91 128h25M123 128h10M140 128h19M163 128h40M91 129h25M123 129h10M140 129h20M166 129h37M91 130h27M140 130h21M166 130h37M91 131h28M135 131h26M166 131h37M90 132h29M132 132h30M166 132h37M88 133h38M129 133h34M166 133h37M88 134h75M166 134h37M88 135h75M166 135h37M88 136h75M166 136h37M87 137h76M166 137h38M87 138h77M166 138h40M87 139h77M166 139h40M87 140h76M166 140h40M87 141h76M166 141h40M87 142h75M166 142h40M87 143h34M130 143h32M166 143h40M87 144h29M135 144h24M166 144h40M86 145h30M137 145h22M165 145h41M86 146h30M139 146h20M163 146h43M86 147h30M119 147h14M144 147h14M163 147h43M85 148h31M119 148h14M144 148h14M163 148h43M85 149h31M119 149h14M144 149h14M163 149h43M85 150h31M120 150h13M144 150h14M161 150h45M86 151h30M120 151h13M161 151h45M86 152h30M120 152h20M161 152h45M86 153h30M120 153h20M161 153h45M86 154h30M120 154h20M161 154h46M86 155h30M120 155h34M160 155h47M86 156h30M120 156h33M158 156h49M86 157h30M120 157h33M156 157h51M86 158h30M120 158h32M155 158h51M86 159h30M120 159h31M155 159h51M85 160h31M119 160h32M154 160h52M85 161h31M119 161h87M82 162h34M119 162h39M161 162h45M82 163h34M119 163h28M161 163h45M82 164h34M119 164h28M161 164h45M82 165h34M119 165h25M163 165h43M82 166h34M119 166h25M150 166h7M164 166h42M82 167h34M123 167h21M150 167h7M166 167h40M82 168h34M123 168h20M148 168h10M166 168h39M82 169h37M148 169h10M166 169h39M82 170h37M147 170h12M166 170h39M82 171h37M146 171h17M166 171h39M82 172h81M166 172h39M82 173h81M166 173h39M82 174h81M166 174h39M82 175h81M166 175h39M82 176h81M166 176h39M82 177h81M166 177h39M82 178h81M166 178h39M82 179h81M166 179h39M82 180h81M166 180h39M82 181h81M166 181h39M82 182h48M147 182h16M166 182h39M82 183h48M147 183h16M166 183h39M82 184h48M147 184h16M166 184h39M82 185h48M147 185h16M166 185h39M82 186h44M133 186h11M151 186h12M166 186h39M82 187h44M133 187h11M151 187h12M166 187h39M82 188h44M133 188h11M151 188h12M166 188h39M82 189h41M133 189h14M151 189h12M166 189h39M82 190h41M126 190h21M151 190h8M166 190h39M82 191h41M126 191h21M151 191h8M166 191h39M82 192h41M126 192h21M151 192h8M166 192h39M82 193h41M126 193h21M152 193h4M163 193h42M82 194h41M126 194h21M163 194h42M82 195h41M126 195h25M163 195h42M82 196h41M125 196h26M163 196h42M82 197h41M125 197h26M159 197h46M82 198h41M125 198h26M154 198h51M82 199h41M125 199h80M82 200h41M125 200h80M82 201h41M125 201h80M82 202h41M125 202h80M82 203h41M125 203h19M166 203h39M82 204h41M133 204h11M166 204h39M82 205h41M133 205h11M166 205h39M82 206h41M133 206h11M149 206h9M166 206h39M82 207h48M147 207h16M166 207h39M82 208h48M147 208h16M166 208h39M82 209h48M145 209h18M170 209h35M83 210h80M170 210h35M83 211h83M170 211h35M83 212h83M170 212h35M83 213h83M170 213h35M83 214h83M170 214h35M83 215h83M170 215h35M83 216h83M170 216h35M83 217h83M170 217h34M83 218h83M170 218h34M83 219h83M170 219h34M83 220h83M170 220h34M83 221h83M170 221h34M83 222h83M170 222h34M83 223h83M170 223h34M83 224h83M170 224h33M83 225h83M170 225h33M83 226h40M128 226h11M151 226h12M170 226h33M83 227h40M151 227h12M170 227h33M83 228h40M151 228h11M170 228h33M83 229h40M170 229h33M83 230h40M126 230h21M166 230h37M83 231h40M126 231h21M166 231h37M83 232h40M126 232h21M166 232h37M83 233h40M126 233h78M83 234h40M126 234h78M83 235h40M126 235h78M83 236h40M126 236h78M84 237h39M126 237h78M84 238h39M126 238h78M84 239h39M126 239h78M84 240h39M134 240h70M84 241h42M141 241h13M163 241h41M84 242h42M163 242h41M84 243h42M166 243h38M84 244h75M166 244h38M84 245h75M166 245h38M84 246h17M108 246h51M166 246h38M84 247h16M109 247h50M166 247h38M84 248h15M109 248h50M166 248h38M84 249h14M120 249h39M166 249h35M87 250h10M120 250h24M148 250h11M166 250h35M87 251h9M120 251h24M166 251h35M87 252h9M120 252h24M166 252h35M88 253h7M104 253h8M123 253h21M166 253h35M88 254h7M104 254h9M123 254h14M166 254h35M88 255h7M105 255h10M123 255h14M147 255h9M166 255h35M91 256h4M105 256h11M126 256h11M144 256h12M166 256h2M91 257h4M105 257h11M126 257h11M144 257h12M159 257h9M91 258h4M105 258h11M126 258h11M144 258h8M159 258h13M91 259h4M105 259h11M126 259h11M144 259h8M159 259h13M117 260h2M130 260h7M144 260h3M159 260h7M117 261h2M130 261h9M159 261h7M117 262h2M130 262h11M159 262h6M133 263h11M159 263h4M133 264h11M159 264h3M133 265h11M159 265h3M133 266h11M159 266h3M133 267h7M133 268h7" />
<path stroke="#121010" d="M151 26h1" />
<path stroke="#03a9f4" d="M146 69h3M144 70h11M143 71h12M141 72h15M133 73h14M153 73h6M133 74h14M153 74h6M133 75h4M153 75h6M133 76h4M155 76h4M133 77h4M155 77h4M133 78h4M155 78h4M130 79h7M155 79h4M130 80h7M155 80h4M130 81h3M155 81h4M130 82h3M154 82h5M130 83h3M144 83h15M130 84h3M144 84h15M130 85h3M147 85h12M130 86h3M147 86h12M130 87h3M147 87h4M130 88h3M130 89h3M130 90h3M130 91h7M133 92h4M133 93h4M133 94h4M133 95h4M133 96h11M133 97h11M137 98h14M140 99h11M140 100h11M146 101h5" />
<path stroke="#2e7d32" d="M159 89h17M159 90h17M152 91h24M152 92h10M173 92h7M152 93h10M173 93h7M152 94h10M173 94h7M152 95h3M173 95h7M152 96h3M177 96h3M152 97h3M177 97h3M151 98h4M177 98h3M177 99h3M177 100h3M177 101h3M177 102h3M177 103h3M177 104h3M116 105h24M177 105h3M116 106h24M173 106h7M116 107h24M173 107h7M116 108h24M173 108h7M116 109h30M173 109h3M116 110h2M137 110h9M173 110h3M116 111h2M137 111h11M173 111h3M116 112h2M137 112h15M173 112h4M116 113h2M146 113h6M172 113h5M116 114h2M147 114h5M172 114h5M116 115h2M148 115h4M170 115h7M116 116h3M148 116h4M168 116h8M116 117h3M149 117h4M161 117h15M116 118h3M150 118h4M160 118h16M116 119h3M151 119h6M160 119h16M116 120h3M152 120h13M116 121h3M153 121h12M116 122h3M154 122h11M116 123h3M154 123h9M116 124h3M138 124h25M116 125h3M138 125h25M116 126h3M138 126h25M116 127h7M133 127h7M158 127h5M116 128h7M133 128h7M159 128h4M116 129h7M133 129h7M160 129h6M118 130h22M161 130h5M119 131h16M161 131h5M119 132h13M162 132h4M126 133h3M163 133h3M163 134h3M163 135h3M163 136h3M163 137h3M164 138h2M164 139h2M163 140h3M163 141h3M162 142h4M162 143h4M162 144h4M162 145h3" />
<path stroke="#497d47" d="M173 96h4" />
<path stroke="#bbdefb" d="M121 143h9M116 144h19M159 144h3M116 145h21M159 145h3M116 146h23M159 146h4M116 147h3M133 147h11M158 147h5M116 148h3M133 148h11M158 148h5M116 149h3M133 149h11M158 149h5M116 150h4M133 150h11M158 150h3M116 151h4M133 151h28M116 152h4M140 152h21M116 153h4M140 153h21M116 154h4M140 154h21M116 155h4M154 155h6M116 156h4M153 156h5M116 157h4M153 157h3M116 158h4M152 158h3M116 159h4M151 159h4M116 160h3M151 160h3M116 161h3M116 162h3M158 162h3M116 163h3M147 163h14M116 164h3M147 164h14M116 165h3M144 165h19M116 166h3M144 166h6M157 166h7M116 167h7M144 167h6M157 167h9M116 168h7M143 168h5M158 168h8M119 169h29M158 169h8M119 170h28M159 170h7M119 171h27M163 171h3M163 172h3M163 173h3M163 174h3M163 175h3M163 176h3M163 177h3M163 178h3M163 179h3M163 180h3M163 181h3M130 182h17M163 182h3M130 183h17M163 183h3M130 184h17M163 184h3M130 185h17M163 185h3M126 186h7M144 186h7M163 186h3M126 187h7M144 187h7M163 187h3M126 188h7M144 188h7M163 188h3M126 189h7M147 189h4M163 189h3M147 190h4M159 190h7M147 191h4M159 191h7M147 192h4M159 192h7M147 193h5M156 193h7M147 194h16M151 195h12M151 196h12M151 197h8M151 198h3" />
<path stroke="#ed1d0e" d="M123 189h3M123 190h3M123 191h3M123 192h3M123 193h3M123 194h3M123 195h3M123 196h2M123 197h2M123 198h2M123 199h2M123 200h2M123 201h2M123 202h2M123 203h2M144 203h22M123 204h10M144 204h22M123 205h10M144 205h22M123 206h10M144 206h5M158 206h8M130 207h17M163 207h3M130 208h17M163 208h3M130 209h15M163 209h7M163 210h7M166 211h4M166 212h4M166 213h4M166 214h4M166 215h4M166 216h4M166 217h4M166 218h4M166 219h4M166 220h4M166 221h4M166 222h4M166 223h4M166 224h4M166 225h4M123 226h5M139 226h12M163 226h7M123 227h28M163 227h7M123 228h28M162 228h8M123 229h47M123 230h3M147 230h19M123 231h3M147 231h19M123 232h3M147 232h19M123 233h3M123 234h3M123 235h3M123 236h3M123 237h3M123 238h3M123 239h3M123 240h11M126 241h15M154 241h9M126 242h37M126 243h40M159 244h7M159 245h7M159 246h7M159 247h7M159 248h7M159 249h4M144 250h4M159 250h4M144 251h19M144 252h19M144 253h12M137 254h19M137 255h10M137 256h7M137 257h7M137 258h7M137 259h7M137 260h7M139 261h8M141 262h6" />
<path stroke="rgba(0,0,0,0.7098039215686275)" d="M208 223h4" />
<path stroke="#005d30" d="M47 238h11M47 239h17M51 240h16M54 241h13M57 242h11M59 243h10M216 243h3M61 244h8M214 244h5M64 245h5M214 245h5M65 246h5M101 246h7M212 246h7M231 246h8M66 247h6M100 247h9M208 247h11M231 247h8M66 248h7M99 248h10M208 248h10M231 248h7M66 249h8M98 249h22M163 249h3M208 249h7M228 249h10M66 250h9M97 250h23M163 250h3M208 250h7M228 250h8M46 251h7M67 251h10M96 251h24M163 251h3M208 251h4M224 251h12M44 252h12M67 252h10M96 252h24M163 252h3M205 252h7M224 252h12M44 253h4M49 253h28M95 253h9M112 253h11M156 253h10M205 253h7M220 253h16M44 254h2M52 254h19M74 254h3M95 254h7M113 254h10M156 254h10M205 254h7M220 254h16M56 255h15M74 255h3M95 255h7M115 255h8M156 255h10M205 255h7M216 255h17M56 256h15M74 256h9M95 256h7M116 256h10M156 256h10M168 256h19M205 256h3M214 256h19M66 257h19M95 257h7M116 257h10M156 257h3M168 257h19M204 257h4M213 257h20M66 258h19M95 258h7M116 258h10M152 258h7M172 258h15M204 258h4M213 258h16M66 259h19M95 259h7M116 259h10M152 259h7M172 259h15M201 259h7M213 259h16M66 260h21M95 260h7M119 260h11M147 260h12M172 260h19M201 260h7M212 260h13M74 261h14M95 261h7M119 261h11M147 261h12M180 261h11M201 261h4M212 261h12M74 262h14M95 262h5M119 262h11M147 262h12M180 262h11M200 262h5M208 262h15M76 263h12M95 263h5M123 263h10M144 263h15M180 263h18M200 263h22M76 264h12M95 264h5M123 264h10M144 264h12M182 264h2M187 264h11M200 264h22M77 265h11M95 265h5M123 265h10M144 265h12M182 265h2M187 265h11M200 265h21M77 266h11M94 266h6M123 266h10M144 266h12M182 266h2M187 266h11M200 266h20M77 267h11M94 267h5M123 267h10M140 267h11M194 267h4M200 267h19M78 268h11M93 268h5M123 268h10M140 268h11M159 268h3M194 268h24M84 269h6M93 269h5M123 269h28M157 269h23M194 269h23M85 270h5M93 270h5M125 270h25M157 270h26M194 270h21M85 271h13M125 271h25M156 271h28M194 271h21M85 272h13M125 272h24M155 272h9M171 272h2M181 272h3M194 272h21M242 272h5M85 273h13M125 273h22M155 273h5M197 273h17M235 273h12M87 274h11M125 274h19M154 274h5M198 274h16M226 274h18M88 275h11M124 275h20M154 275h3M199 275h14M226 275h17M89 276h10M124 276h17M152 276h5M200 276h12M226 276h17M90 277h9M122 277h15M151 277h5M201 277h10M219 277h24M91 278h8M121 278h13M150 278h5M201 278h9M219 278h14M92 279h8M121 279h11M149 279h6M202 279h8M219 279h14M93 280h8M120 280h11M149 280h6M202 280h8M217 280h16M94 281h7M120 281h9M148 281h7M204 281h5M214 281h17M95 282h7M119 282h8M147 282h8M204 282h5M212 282h14M229 282h2M96 283h7M119 283h7M147 283h8M203 283h20M98 284h6M117 284h7M147 284h7M203 284h19M99 285h6M116 285h7M146 285h8M203 285h18M101 286h4M114 286h8M131 286h12M146 286h2M149 286h4M201 286h19M102 287h6M111 287h14M129 287h24M201 287h17M103 288h50M201 288h14M106 289h24M131 289h22M201 289h5M209 289h1M201 290h3M200 291h3M200 292h2" />
<path stroke="rgba(0,93,48,0.2901960784313726)" d="M74 249h1" />
<path stroke="#001b0e" d="M205 251h3M201 258h3" />
<path stroke="#00250e" d="M81 253h2M84 256h4" />
<path stroke="#008131" d="M71 254h3M77 254h7M102 254h2M71 255h3M77 255h7M102 255h3M88 256h3M102 256h3M187 256h14M60 257h6M85 257h6M102 257h3M187 257h14M60 258h6M85 258h6M102 258h3M187 258h14M60 259h6M85 259h6M102 259h3M187 259h14M208 259h1M88 260h7M102 260h15M166 260h6M191 260h10M208 260h4M225 260h6M70 261h4M88 261h7M102 261h15M166 261h14M191 261h10M205 261h7M224 261h10M52 262h13M70 262h4M88 262h7M100 262h17M165 262h15M191 262h9M205 262h3M223 262h13M52 263h14M70 263h6M88 263h7M100 263h23M163 263h17M198 263h2M223 263h13M53 264h23M88 264h7M100 264h23M156 264h3M162 264h20M184 264h3M198 264h2M222 264h14M53 265h24M88 265h7M100 265h23M156 265h3M162 265h20M184 265h3M198 265h2M221 265h19M56 266h21M88 266h6M100 266h23M156 266h3M162 266h20M184 266h3M198 266h2M220 266h20M56 267h21M88 267h6M99 267h24M151 267h42M219 267h21M56 268h22M89 268h4M98 268h25M151 268h8M162 268h32M218 268h22M56 269h28M90 269h3M98 269h25M151 269h6M180 269h14M217 269h23M56 270h29M90 270h3M98 270h27M150 270h7M183 270h11M217 270h23M56 271h29M98 271h27M150 271h6M184 271h10M215 271h25M55 272h30M98 272h27M149 272h6M164 272h7M173 272h8M184 272h10M215 272h25M55 273h30M98 273h27M147 273h8M160 273h37M214 273h21M55 274h32M98 274h27M145 274h9M159 274h39M214 274h12M63 275h25M99 275h25M144 275h10M157 275h42M213 275h13M63 276h26M99 276h25M141 276h11M157 276h43M212 276h14M63 277h27M99 277h23M138 277h13M156 277h45M211 277h8M63 278h28M99 278h22M134 278h16M155 278h46M210 278h9M63 279h29M100 279h21M132 279h17M155 279h47M210 279h9M63 280h30M101 280h19M131 280h18M155 280h47M210 280h7M63 281h31M101 281h19M129 281h19M155 281h49M209 281h5M231 281h3M66 282h29M102 282h17M127 282h20M155 282h49M209 282h3M226 282h3M231 282h3M67 283h29M103 283h16M126 283h21M155 283h48M223 283h11M67 284h31M104 284h13M124 284h23M154 284h49M222 284h12M70 285h29M105 285h11M123 285h23M154 285h49M221 285h13M70 286h31M105 286h9M122 286h9M143 286h3M148 286h1M153 286h48M220 286h14M70 287h32M108 287h3M125 287h4M153 287h48M218 287h16M70 288h33M153 288h48M215 288h19M73 289h33M130 289h1M153 289h24M180 289h21M206 289h3M210 289h23M73 290h16M92 290h18M151 290h26M180 290h21M204 290h29M74 291h15M95 291h15M151 291h49M203 291h28M84 292h4M151 292h49M202 292h25M155 293h72M155 294h72M155 295h72M168 296h21M192 296h10M204 296h23M169 297h19M193 297h9M205 297h22M170 298h17M198 298h4M209 298h3M176 299h7" />
<path stroke="#007731" d="M71 256h3M83 256h1M87 260h1M198 267h2" />
<path stroke="#006730" d="M222 263h1M193 267h1M215 270h2M144 274h1M137 277h1" />
<path stroke="rgba(0,130,49,0.7098039215686275)" d="M231 291h2" />
</svg>