<svg xmlns="http://www.w3.org/2000/svg" viewBox="0 -0.5 854 480" shape-rendering="crispEdges">
<metadata>Made with Pixels to Svg https://codepen.io/shshaw/pen/XbxvNj</metadata>
<path stroke="#8c7c79" d="M390 146h62M368 147h106M353 148h136M341 149h160M331 150h62M449 150h62M322 151h49M471 151h49M314 152h42M486 152h42M306 153h38M498 153h38M299 154h35M508 154h35M292 155h33M517 155h33M286 156h31M525 156h31M280 157h29M533 157h29M275 158h27M540 158h27M269 159h26M547 159h26M264 160h25M553 160h25M259 161h24M559 161h24M255 162h23M564 162h23M250 163h22M570 163h22M246 164h21M575 164h21M241 165h21M580 165h21M237 166h21M584 166h21M233 167h20M589 167h20M230 168h19M593 168h19M226 169h18M598 169h18M222 170h18M602 170h18M219 171h17M606 171h17M215 172h18M609 172h18M212 173h17M613 173h17M209 174h16M617 174h16M206 175h16M620 175h16M202 176h16M624 176h16M199 177h16M627 177h16M197 178h15M630 178h15M194 179h15M633 179h15M191 180h14M637 180h14M188 181h14M640 181h14M185 182h15M642 182h15M183 183h14M645 183h14M180 184h14M648 184h14M178 185h13M651 185h13M175 186h13M654 186h13M173 187h13M656 187h13M171 188h12M659 188h12M168 189h13M661 189h13M166 190h12M664 190h12M164 191h12M666 191h12M162 192h12M668 192h12M160 193h11M671 193h11M158 194h11M673 194h11M156 195h11M675 195h11M154 196h11M677 196h11M152 197h11M679 197h11M150 198h11M681 198h11M148 199h11M683 199h11M146 200h11M685 200h11M145 201h10M687 201h10M143 202h10M689 202h10M141 203h10M691 203h10M139 204h10M693 204h10M138 205h10M694 205h10M136 206h10M696 206h10M135 207h9M698 207h9M133 208h9M700 208h9M132 209h9M701 209h9M130 210h9M703 210h9M129 211h9M704 211h9M128 212h8M706 212h8M126 213h9M707 213h9M125 214h8M709 214h8M124 215h8M710 215h8M122 216h9M711 216h9M121 217h8M713 217h8M120 218h8M714 218h8M119 219h8M715 219h8M118 220h7M717 220h7M116 221h8M718 221h8M115 222h8M719 222h8M114 223h8M720 223h8M113 224h8M721 224h8M112 225h7M723 225h7M111 226h7M724 226h7M110 227h7M725 227h7M109 228h7M726 228h7M109 229h6M727 229h6M108 230h6M728 230h6M107 231h6M729 231h6M106 232h7M729 232h7M105 233h7M730 233h7M104 234h7M731 234h7M104 235h6M732 235h6M103 236h6M733 236h6M102 237h6M734 237h6M102 238h6M734 238h6M101 239h6M735 239h6M100 240h6M736 240h6M100 241h6M736 241h6M99 242h6M737 242h6M98 243h6M738 243h6M98 244h6M738 244h6M97 245h6M739 245h6M97 246h5M740 246h5M96 247h6M740 247h6M96 248h5M741 248h5M96 249h5M741 249h5M95 250h5M742 250h5M95 251h5M742 251h5M95 252h5M742 252h5M94 253h5M743 253h5M94 254h5M743 254h5M94 255h5M743 255h5M93 256h5M744 256h5M93 257h5M744 257h5M93 258h5M744 258h5M93 259h4M745 259h4M93 260h4M745 260h4M92 261h5M745 261h5M92 262h5M745 262h5M92 263h5M745 263h5M92 264h4M746 264h4M92 265h4M746 265h4M92 266h4M746 266h4M92 267h4M746 267h4M92 268h4M746 268h4M92 269h4M746 269h4M92 270h4M746 270h4M92 271h4M746 271h4M92 272h4M746 272h4M92 273h4M746 273h4M92 274h5M745 274h5M92 275h5M745 275h5M92 276h5M745 276h5M93 277h4M745 277h4M93 278h4M745 278h4M93 279h5M744 279h5M93 280h5M744 280h5M93 281h5M744 281h5M94 282h5M743 282h5M94 283h5M743 283h5M94 284h5M743 284h5M95 285h5M742 285h5M95 286h5M742 286h5M95 287h5M742 287h5M96 288h5M741 288h5M96 289h5M741 289h5M96 290h6M740 290h6M97 291h5M740 291h5M97 292h6M739 292h6M98 293h6M738 293h6M98 294h6M738 294h6M99 295h6M737 295h6M100 296h6M736 296h6M100 297h6M736 297h6M101 298h6M735 298h6M102 299h6M734 299h6M102 300h6M734 300h6M103 301h6M733 301h6M104 302h6M732 302h6M104 303h7M731 303h7M105 304h7M730 304h7M106 305h7M729 305h7M107 306h6M729 306h6M108 307h6M728 307h6M109 308h6M727 308h6M109 309h7M726 309h7M110 310h7M725 310h7M111 311h7M724 311h7M112 312h7M723 312h7M113 313h8M721 313h8M114 314h8M720 314h8M115 315h8M719 315h8M116 316h8M718 316h8M118 317h7M717 317h7M119 318h8M715 318h8M120 319h8M714 319h8M121 320h8M713 320h8M122 321h9M711 321h9M124 322h8M710 322h8M125 323h8M709 323h8M126 324h9M707 324h9M128 325h8M706 325h8M129 326h9M704 326h9M130 327h9M703 327h9M132 328h9M701 328h9M133 329h9M700 329h9M135 330h9M698 330h9M136 331h10M696 331h10M138 332h10M694 332h10M139 333h10M693 333h10M141 334h10M691 334h10M143 335h10M689 335h10M145 336h10M687 336h10M146 337h11M685 337h11M148 338h11M683 338h11M150 339h11M681 339h11M152 340h11M679 340h11M154 341h11M677 341h11M156 342h11M675 342h11M158 343h11M673 343h11M160 344h11M671 344h11M162 345h12M668 345h12M164 346h12M666 346h12M166 347h12M664 347h12M168 348h13M661 348h13M171 349h12M659 349h12M173 350h13M656 350h13M175 351h13M654 351h13M178 352h13M651 352h13M180 353h14M648 353h14M183 354h14M645 354h14M185 355h15M642 355h15M188 356h14M640 356h14M191 357h14M637 357h14M194 358h15M633 358h15M197 359h15M630 359h15M199 360h16M627 360h16M202 361h16M624 361h16M206 362h16M620 362h16M209 363h16M617 363h16M212 364h17M613 364h17M215 365h18M609 365h18M219 366h17M606 366h17M222 367h18M602 367h18M226 368h18M598 368h18M230 369h19M593 369h19M233 370h20M589 370h20M237 371h21M584 371h21M241 372h21M580 372h21M246 373h21M575 373h21M250 374h22M570 374h22M255 375h23M564 375h23M259 376h24M559 376h24M264 377h25M553 377h25M269 378h26M547 378h26M275 379h27M540 379h27M280 380h29M533 380h29M286 381h31M525 381h31M292 382h33M517 382h33M299 383h35M508 383h35M306 384h38M498 384h38M314 385h42M486 385h42M322 386h49M471 386h49M331 387h62M449 387h62M341 388h160M353 389h136M368 390h106M390 391h62" />
</svg>