<svg xmlns="http://www.w3.org/2000/svg" viewBox="0 -0.5 24 17" shape-rendering="crispEdges">
<metadata>Made with Pixels to Svg https://codepen.io/shshaw/pen/XbxvNj</metadata>
<path stroke="#000000" d="M10 2h3M14 3h1M8 4h1M4 5h1M16 5h1M3 6h1M19 7h1M20 8h1M3 10h1M8 11h1M14 11h1M19 11h1" />
<path stroke="#546d8e" d="M9 3h1M5 5h1M7 5h2M4 6h1M9 6h1M12 6h1M3 7h2M9 7h4M3 8h2M9 8h4M4 9h1M9 9h1M11 9h3M15 9h2M20 9h1M4 10h2M9 10h7M20 10h1M5 11h2M10 11h3M16 11h3" />
<path stroke="#b4b4b4" d="M10 3h2M9 4h4M6 5h1M9 5h3M5 6h3M10 6h2M5 7h3M17 7h2M5 8h3M17 8h2M3 9h1M17 9h2M8 10h1M17 10h2M7 11h1M9 11h1M13 11h1M10 12h3" />
<path stroke="#99d9ea" d="M12 3h2M13 4h3M12 5h4M8 6h1M13 6h4M8 7h1M13 7h4M8 8h1M13 8h4M19 8h1M5 9h4M14 9h1M19 9h1M6 10h2M16 10h1M19 10h1" />
<path stroke="#72bfe8" d="M10 9h1M15 11h1" />
</svg>