<svg xmlns="http://www.w3.org/2000/svg" viewBox="0 -0.5 19 17" shape-rendering="crispEdges">
<metadata>Made with Pixels to Svg https://codepen.io/shshaw/pen/XbxvNj</metadata>
<path stroke="#783011" d="M8 4h2M5 5h8M5 6h1M9 6h1M12 6h1M4 7h1M9 7h1M12 7h2M4 8h1M10 8h1M4 9h1M10 9h1M11 10h1M5 11h2M11 11h1M5 12h3M10 12h3M6 13h4M11 13h2" />
<path stroke="#9c5a3c" d="M6 6h3M5 7h4M5 8h5M5 9h5M5 10h6M7 11h4M8 12h2" />
<path stroke="#69281b" d="M10 6h2M10 7h2M11 8h4M11 9h4M12 10h3M12 11h3M13 12h2" />
</svg>