<svg xmlns="http://www.w3.org/2000/svg" viewBox="0 -0.5 15 14" shape-rendering="crispEdges">
<metadata>Made with Pixels to Svg https://codepen.io/shshaw/pen/XbxvNj</metadata>
<path stroke="#ff6d00" d="M8 2h3M10 5h1M11 6h1M11 7h1M10 8h1M8 11h3" />
<path stroke="#ff9800" d="M5 3h5M5 4h5M8 5h2M10 6h1M10 7h1M8 8h2M5 9h5M5 10h5" />
<path stroke="#f44336" d="M10 3h2M10 4h2M11 5h3M12 6h2M12 7h2M11 8h3M10 9h2M10 10h2" />
<path stroke="#d50000" d="M12 3h2M12 4h2M14 5h1M14 6h1M14 7h1M14 8h1M12 9h2M12 10h2" />
<path stroke="#ffc107" d="M3 5h5M7 6h3M7 7h3M3 8h5" />
<path stroke="#ffeb3b" d="M0 6h7M0 7h7" />
</svg>