<svg xmlns="http://www.w3.org/2000/svg" viewBox="0 -0.5 100 100" shape-rendering="crispEdges">
<metadata>Made with Pixels to Svg https://codepen.io/shshaw/pen/XbxvNj</metadata>
<path stroke="#eb3c07" d="M58 17h1M56 18h5M54 19h7M53 20h8M53 21h7M51 22h9M49 23h10M48 24h8M45 25h10M43 26h11M43 27h11M43 28h11M40 29h12M38 30h14M37 31h15M36 32h16M34 33h16M34 34h15M33 35h14M13 36h14M29 36h15M10 37h34M47 37h3M8 38h37M46 38h5M8 39h45M23 40h30M27 41h26M28 42h26M30 43h24M41 44h15M45 45h11M45 46h11M46 47h10M48 48h4" />
<path stroke="#eb8b05" d="M52 20h1M49 21h4M46 22h5M45 23h4M42 24h6M41 25h4M40 26h3M54 26h1M39 27h4M38 28h5M37 29h3M52 29h2M36 30h2M34 31h3M33 32h3M33 33h1M50 33h1M32 34h2M49 34h1M21 35h12M47 35h2M27 36h2M52 48h1M62 58h2M59 59h5M58 60h2M62 60h1M55 61h3M55 62h1M37 69h1M36 70h1M36 71h1M52 71h1M36 72h1M52 72h1M30 73h1M36 73h1M52 73h2M29 74h1M52 74h2M27 75h2M52 75h2M26 76h1M36 76h1M52 76h2M36 77h1M52 77h1M35 78h1M51 78h1M35 79h1M34 80h1M33 81h1" />
<path stroke="#ad390a" d="M60 21h1M60 22h1M59 23h2M56 24h5M55 25h6M55 26h6M54 27h6M54 28h5M54 29h5M52 30h6M52 31h6M52 32h6M51 33h7M50 34h8M49 35h9M44 36h14M44 37h3M50 37h10M45 38h1M51 38h10M53 39h8M11 40h12M53 40h9M11 41h16M53 41h9M15 42h13M54 42h8M21 43h9M54 43h8M28 44h13M56 44h4M29 45h16M56 45h4M31 46h14M56 46h4M37 47h9M56 47h4M44 48h4M53 48h10M45 49h20M47 50h18M49 51h17M58 52h9M59 53h10M61 54h9M61 55h11M64 56h8M60 60h2M58 61h4M50 62h5M56 62h3M60 62h1M46 63h5M54 63h3M60 63h1M60 64h1M59 65h2M36 66h2M59 66h2M36 67h2M59 67h2M36 68h2M59 68h2M35 69h2M50 69h2M60 69h2M35 70h1M51 70h3M61 70h1M35 71h1M53 71h1M61 71h2M35 72h1M53 72h2M61 72h2M31 73h1M35 73h1M54 73h1M61 73h3M30 74h2M35 74h2M54 74h1M62 74h2M29 75h2M35 75h2M54 75h1M62 75h2M27 76h3M35 76h1M54 76h1M62 76h2M25 77h3M34 77h2M53 77h2M63 77h2M33 78h2M52 78h2M63 78h2M33 79h2M51 79h2M63 79h2M32 80h2M63 80h2M31 81h2M64 81h2M31 82h1M64 82h2M30 83h2M64 83h2M30 84h1M43 84h2M64 84h2M30 85h1M41 85h5M63 85h3M30 86h22M62 86h4M28 87h24M61 87h5M28 88h23" />
<path stroke="#f2c4a0" d="M26 44h2M26 45h3M25 46h6M25 47h12M24 48h20M24 49h4M30 49h15M23 50h5M30 50h4M36 50h11M23 51h5M30 51h4M36 51h13M23 52h5M30 52h4M36 52h17M23 53h11M36 53h17M24 54h29M24 55h31M25 56h30M26 57h29M27 58h27M28 59h25M30 60h1M34 60h17M35 61h12M41 62h5M22 67h3M23 68h7M19 69h1M23 69h7M19 70h2M23 70h7M19 71h2M23 71h7M46 71h6M19 72h2M23 72h7M46 72h6M24 73h6M43 73h9M43 74h9M43 75h9M43 76h9M43 77h6M43 78h6" />
<path stroke="#000000" d="M28 49h2M28 50h2M34 50h2M28 51h2M34 51h2M28 52h2M34 52h2M34 53h2" />
<path stroke="#91070e" d="M53 52h5M53 53h6M53 54h8M55 55h6M55 56h9M55 57h9M54 58h8M53 59h6M31 60h3M51 60h7M28 61h7M47 61h8M28 62h13M46 62h4M59 62h1M28 63h18M51 63h3M57 63h3M28 64h32M27 65h32M27 66h9M38 66h21M27 67h9M38 67h21M30 68h6M38 68h21M30 69h5M38 69h12M52 69h8M30 70h5M37 70h14M54 70h7M30 71h5M37 71h9M54 71h7M30 72h5M37 72h9M55 72h6M32 73h3M37 73h6M55 73h6M26 74h3M32 74h3M37 74h6M55 74h7M26 75h1M31 75h4M37 75h6M55 75h7M30 76h5M37 76h6M55 76h7M28 77h6M37 77h6M49 77h3M55 77h8M25 78h8M36 78h7M49 78h2M54 78h9M25 79h8M36 79h15M53 79h10M25 80h7M35 80h28M25 81h6M34 81h30M25 82h6M32 82h32M25 83h5M32 83h32M25 84h5M31 84h12M45 84h19M25 85h5M31 85h10M46 85h17M26 86h4M52 86h10M27 87h1M52 87h9" />
<path stroke="#9c5a3c" d="M18 53h2M18 54h3M18 55h3M18 56h3M19 57h2M19 58h2M19 59h2M19 60h2M19 61h2M19 62h2M19 63h2M19 64h2M19 65h2M19 66h2M19 67h3M19 68h4M20 69h3M21 70h2M21 71h2M21 72h2M21 73h2M20 74h3M20 75h3M20 76h2M20 77h2M20 78h2M20 79h2M20 80h2M20 81h2M19 82h3M19 83h3M19 84h3M20 85h2M20 86h2M20 87h2M20 88h2" />
</svg>