<svg xmlns="http://www.w3.org/2000/svg" viewBox="0 -0.5 192 104" shape-rendering="crispEdges">
<metadata>Made with Pixels to Svg https://codepen.io/shshaw/pen/XbxvNj</metadata>
<path stroke="#9c5a3c" d="M83 20h28M73 21h48M66 22h18M110 22h18M61 23h13M120 23h13M56 24h11M127 24h11M52 25h10M132 25h10M49 26h8M137 26h8M46 27h7M141 27h7M43 28h7M144 28h7M40 29h7M147 29h7M38 30h6M150 30h6M36 31h5M153 31h5M34 32h5M155 32h5M32 33h5M157 33h5M30 34h5M159 34h5M28 35h5M161 35h5M27 36h4M163 36h4M25 37h4M165 37h4M24 38h4M166 38h4M23 39h3M168 39h3M22 40h3M169 40h3M21 41h3M170 41h3M20 42h3M171 42h3M19 43h3M172 43h3M18 44h3M173 44h3M17 45h3M174 45h3M17 46h2M175 46h2M16 47h3M175 47h3M16 48h2M176 48h2M15 49h3M176 49h3M15 50h2M177 50h2M15 51h2M177 51h2M14 52h3M177 52h3M14 53h2M178 53h2M14 54h2M178 54h2M14 55h2M178 55h2M14 56h2M178 56h2M14 57h2M178 57h2M14 58h2M178 58h2M14 59h3M177 59h3M15 60h2M177 60h2M15 61h2M177 61h2M15 62h3M176 62h3M16 63h2M176 63h2M16 64h3M175 64h3M17 65h2M175 65h2M17 66h3M174 66h3M18 67h3M173 67h3M19 68h3M172 68h3M20 69h3M171 69h3M21 70h3M170 70h3M22 71h3M169 71h3M23 72h3M168 72h3M24 73h4M166 73h4M25 74h4M165 74h4M27 75h4M163 75h4M28 76h5M161 76h5M30 77h5M159 77h5M32 78h5M157 78h5M34 79h5M155 79h5M36 80h5M153 80h5M38 81h6M150 81h6M40 82h7M147 82h7M43 83h7M144 83h7M46 84h7M141 84h7M49 85h8M137 85h8M52 86h10M132 86h10M56 87h11M127 87h11M61 88h13M120 88h13M66 89h18M110 89h18M73 90h48M83 91h28" />
</svg>