<svg xmlns="http://www.w3.org/2000/svg" viewBox="0 -0.5 192 98" shape-rendering="crispEdges">
<metadata>Made with Pixels to Svg https://codepen.io/shshaw/pen/XbxvNj</metadata>
<path stroke="#3d70b3" d="M81 10h28M71 11h48M64 12h18M108 12h18M59 13h13M118 13h13M54 14h11M125 14h11M50 15h10M130 15h10M47 16h8M135 16h8M44 17h7M139 17h7M41 18h7M142 18h7M38 19h7M145 19h7M36 20h6M148 20h6M34 21h5M151 21h5M32 22h5M153 22h5M30 23h5M155 23h5M28 24h5M157 24h5M26 25h5M159 25h5M25 26h4M161 26h4M23 27h4M163 27h4M22 28h4M164 28h4M21 29h3M166 29h3M20 30h3M167 30h3M19 31h3M168 31h3M18 32h3M169 32h3M17 33h3M170 33h3M16 34h3M171 34h3M15 35h3M172 35h3M15 36h2M173 36h2M14 37h3M173 37h3M14 38h2M174 38h2M13 39h3M174 39h3M13 40h2M175 40h2M13 41h2M175 41h2M12 42h3M175 42h3M12 43h2M176 43h2M12 44h2M176 44h2M12 45h2M176 45h2M12 46h2M176 46h2M12 47h2M176 47h2M12 48h2M176 48h2M12 49h3M175 49h3M13 50h2M175 50h2M13 51h2M175 51h2M13 52h3M174 52h3M14 53h2M174 53h2M14 54h3M173 54h3M15 55h2M173 55h2M15 56h3M172 56h3M16 57h3M171 57h3M17 58h3M170 58h3M18 59h3M169 59h3M19 60h3M168 60h3M20 61h3M167 61h3M21 62h3M166 62h3M22 63h4M164 63h4M23 64h4M163 64h4M25 65h4M161 65h4M26 66h5M159 66h5M28 67h5M157 67h5M30 68h5M155 68h5M32 69h5M153 69h5M34 70h5M151 70h5M36 71h6M148 71h6M38 72h7M145 72h7M41 73h7M142 73h7M44 74h7M139 74h7M47 75h8M135 75h8M50 76h10M130 76h10M54 77h11M125 77h11M59 78h13M118 78h13M64 79h18M108 79h18M71 80h48M81 81h28" />
</svg>