<svg xmlns="http://www.w3.org/2000/svg" viewBox="0 -0.5 226 136" shape-rendering="crispEdges">
<metadata>Made with Pixels to Svg https://codepen.io/shshaw/pen/XbxvNj</metadata>
<path stroke="#cee9f0" d="M105 42h28M95 43h48M88 44h18M132 44h18M83 45h13M142 45h13M78 46h11M149 46h11M74 47h10M154 47h10M71 48h8M159 48h8M68 49h7M163 49h7M65 50h7M166 50h7M62 51h7M169 51h7M60 52h6M172 52h6M58 53h5M175 53h5M56 54h5M177 54h5M54 55h5M179 55h5M52 56h5M181 56h5M50 57h5M183 57h5M49 58h4M185 58h4M47 59h4M187 59h4M46 60h4M188 60h4M45 61h3M190 61h3M44 62h3M191 62h3M43 63h3M192 63h3M42 64h3M193 64h3M41 65h3M194 65h3M40 66h3M195 66h3M39 67h3M196 67h3M39 68h2M197 68h2M38 69h3M197 69h3M38 70h2M198 70h2M37 71h3M198 71h3M37 72h2M199 72h2M37 73h2M199 73h2M36 74h3M199 74h3M36 75h2M200 75h2M36 76h2M200 76h2M36 77h2M200 77h2M36 78h2M200 78h2M36 79h2M200 79h2M36 80h2M200 80h2M36 81h3M199 81h3M37 82h2M199 82h2M37 83h2M199 83h2M37 84h3M198 84h3M38 85h2M198 85h2M38 86h3M197 86h3M39 87h2M197 87h2M39 88h3M196 88h3M40 89h3M195 89h3M41 90h3M194 90h3M42 91h3M193 91h3M43 92h3M192 92h3M44 93h3M191 93h3M45 94h3M190 94h3M46 95h4M188 95h4M47 96h4M187 96h4M49 97h4M185 97h4M50 98h5M183 98h5M52 99h5M181 99h5M54 100h5M179 100h5M56 101h5M177 101h5M58 102h5M175 102h5M60 103h6M172 103h6M62 104h7M169 104h7M65 105h7M166 105h7M68 106h7M163 106h7M71 107h8M159 107h8M74 108h10M154 108h10M78 109h11M149 109h11M83 110h13M142 110h13M88 111h18M132 111h18M95 112h48M105 113h28" />
</svg>