<svg xmlns="http://www.w3.org/2000/svg" viewBox="0 -0.5 210 110" shape-rendering="crispEdges">
<metadata>Made with Pixels to Svg https://codepen.io/shshaw/pen/XbxvNj</metadata>
<path stroke="#eb3c07" d="M94 24h28M84 25h48M77 26h18M121 26h18M72 27h13M131 27h13M67 28h11M138 28h11M63 29h10M143 29h10M60 30h8M148 30h8M57 31h7M152 31h7M54 32h7M155 32h7M51 33h7M158 33h7M49 34h6M161 34h6M47 35h5M164 35h5M45 36h5M166 36h5M43 37h5M168 37h5M41 38h5M170 38h5M39 39h5M172 39h5M38 40h4M174 40h4M36 41h4M176 41h4M35 42h4M177 42h4M34 43h3M179 43h3M33 44h3M180 44h3M32 45h3M181 45h3M31 46h3M182 46h3M30 47h3M183 47h3M29 48h3M184 48h3M28 49h3M185 49h3M28 50h2M186 50h2M27 51h3M186 51h3M27 52h2M187 52h2M26 53h3M187 53h3M26 54h2M188 54h2M26 55h2M188 55h2M25 56h3M188 56h3M25 57h2M189 57h2M25 58h2M189 58h2M25 59h2M189 59h2M25 60h2M189 60h2M25 61h2M189 61h2M25 62h2M189 62h2M25 63h3M188 63h3M26 64h2M188 64h2M26 65h2M188 65h2M26 66h3M187 66h3M27 67h2M187 67h2M27 68h3M186 68h3M28 69h2M186 69h2M28 70h3M185 70h3M29 71h3M184 71h3M30 72h3M183 72h3M31 73h3M182 73h3M32 74h3M181 74h3M33 75h3M180 75h3M34 76h3M179 76h3M35 77h4M177 77h4M36 78h4M176 78h4M38 79h4M174 79h4M39 80h5M172 80h5M41 81h5M170 81h5M43 82h5M168 82h5M45 83h5M166 83h5M47 84h5M164 84h5M49 85h6M161 85h6M51 86h7M158 86h7M54 87h7M155 87h7M57 88h7M152 88h7M60 89h8M148 89h8M63 90h10M143 90h10M67 91h11M138 91h11M72 92h13M131 92h13M77 93h18M121 93h18M84 94h48M94 95h28" />
</svg>