<svg xmlns="http://www.w3.org/2000/svg" viewBox="0 -0.5 100 100" shape-rendering="crispEdges">
<metadata>Made with Pixels to Svg https://codepen.io/shshaw/pen/XbxvNj</metadata>
<path stroke="#cee9f0" d="M58 17h1M56 18h5M54 19h7M53 20h8M53 21h7M51 22h9M49 23h10M48 24h8M45 25h10M43 26h11M43 27h11M43 28h11M40 29h12M38 30h14M37 31h15M36 32h16M34 33h16M34 34h15M33 35h14M13 36h14M29 36h15M10 37h34M47 37h3M8 38h37M46 38h5M8 39h45M23 40h30M27 41h26M28 42h26M30 43h24M41 44h15M45 45h11M45 46h11M46 47h10M48 48h4" />
<path stroke="#b4b4b4" d="M52 20h1M49 21h4M46 22h5M45 23h4M42 24h6M41 25h4M40 26h3M54 26h1M39 27h4M38 28h5M37 29h3M52 29h2M36 30h2M34 31h3M33 32h3M33 33h1M50 33h1M32 34h2M49 34h1M21 35h12M47 35h2M27 36h2M52 48h1" />
<path stroke="#464646" d="M60 21h1M60 22h1M59 23h2M56 24h5M55 25h6M55 26h6M54 27h6M54 28h5M54 29h5M52 30h6M52 31h6M52 32h6M51 33h7M50 34h8M49 35h9M44 36h14M44 37h3M50 37h10M45 38h1M51 38h10M53 39h8M11 40h12M53 40h9M11 41h16M53 41h9M15 42h13M54 42h8M21 43h9M54 43h8M28 44h13M56 44h4M29 45h16M56 45h4M31 46h14M56 46h4M37 47h9M56 47h4M44 48h4M53 48h10M45 49h20M47 50h18M49 51h17M58 52h9M59 53h10M61 54h9M61 55h11M64 56h8" />
<path stroke="#f2c4a0" d="M26 44h2M26 45h3M25 46h6M25 47h12M24 48h20M24 49h4M30 49h15M23 50h5M30 50h4M36 50h11M23 51h5M30 51h4M36 51h13M23 52h5M30 52h4M36 52h17M23 53h11M36 53h17M24 54h29M24 55h31M25 56h30M26 57h29M27 58h27M28 59h25M30 60h1M34 60h17M35 61h12M41 62h5M22 67h3M23 68h7M19 69h1M23 69h7M19 70h2M23 70h7M19 71h2M23 71h7M46 71h6M19 72h2M23 72h7M46 72h6M24 73h6M43 73h9M43 74h9M43 75h9M43 76h9M43 77h6M43 78h6" />
<path stroke="#000000" d="M28 49h2M28 50h2M34 50h2M28 51h2M34 51h2M28 52h2M34 52h2M34 53h2" />
<path stroke="#57818c" d="M53 52h5M53 53h6M53 54h8M55 55h6M55 56h9M55 57h9M54 58h10M53 59h11M31 60h3M51 60h12M28 61h7M47 61h15M28 62h13M46 62h15M28 63h33M28 64h33M27 65h34M27 66h34M27 67h34M30 68h31M30 69h32M30 70h32M30 71h16M52 71h11M30 72h16M52 72h11M30 73h13M52 73h12M26 74h17M52 74h12M26 75h17M52 75h12M26 76h17M52 76h12M25 77h18M49 77h16M25 78h18M49 78h16M25 79h40M25 80h40M25 81h41M25 82h41M25 83h41M25 84h41M25 85h41M26 86h40M27 87h39M28 88h23" />
<path stroke="#9c5a3c" d="M18 53h2M18 54h3M18 55h3M18 56h3M19 57h2M19 58h2M19 59h2M19 60h2M19 61h2M19 62h2M19 63h2M19 64h2M19 65h2M19 66h2M19 67h3M19 68h4M20 69h3M21 70h2M21 71h2M21 72h2M21 73h2M20 74h3M20 75h3M20 76h2M20 77h2M20 78h2M20 79h2M20 80h2M20 81h2M19 82h3M19 83h3M19 84h3M20 85h2M20 86h2M20 87h2M20 88h2" />
</svg>